<svg xmlns="http://www.w3.org/2000/svg" width="716.77294921875" height="670.1288452148438" viewBox="-283.193115234375 -227.20855712890625 716.77294921875 670.1288452148438"><title>Neo4j Graph Visualization</title><desc>Created using Neo4j (http://www.neo4j.com/)</desc><g class="layer relationships"><g class="relationship" transform="translate(-10.613207542573726 28.923242265369073) rotate(384.0768249364172)"><path class="b-outline" fill="#A5ABB6" stroke="none" d="M 25 0.5 L 39.74557754003169 0.5 L 39.74557754003169 -0.5 L 25 -0.5 Z M 69.30417129003169 0.5 L 84.04974883006338 0.5 L 84.04974883006338 3.5 L 91.04974883006338 0 L 84.04974883006338 -3.5 L 84.04974883006338 -0.5 L 69.30417129003169 -0.5 Z"/><text text-anchor="middle" pointer-events="none" font-size="8px" fill="#000000" x="54.52487441503169" y="3" font-family="Helvetica Neue, Helvetica, Arial, sans-serif">CITES</text></g><g class="relationship" transform="translate(-10.613207542573726 28.923242265369073) rotate(436.7882859757734)"><path class="b-outline" fill="#A5ABB6" stroke="none" d="M 25 0.5 L 34.73114687607323 0.5 L 34.73114687607323 -0.5 L 25 -0.5 Z M 64.28974062607324 0.5 L 74.02088750214646 0.5 L 74.02088750214646 3.5 L 81.02088750214646 0 L 74.02088750214646 -3.5 L 74.02088750214646 -0.5 L 64.28974062607324 -0.5 Z"/><text text-anchor="middle" pointer-events="none" font-size="8px" fill="#000000" x="49.51044375107323" y="3" font-family="Helvetica Neue, Helvetica, Arial, sans-serif">CITES</text></g><g class="relationship" transform="translate(-10.613207542573726 28.923242265369073) rotate(253.8359852139045)"><path class="b-outline" fill="#A5ABB6" stroke="none" d="M 25 0.5 L 80.8094645399374 0.5 L 80.8094645399374 -0.5 L 25 -0.5 Z M 110.3680582899374 0.5 L 166.1775228298748 0.5 L 166.1775228298748 3.5 L 173.1775228298748 0 L 166.1775228298748 -3.5 L 166.1775228298748 -0.5 L 110.3680582899374 -0.5 Z"/><text text-anchor="middle" pointer-events="none" font-size="8px" fill="#000000" x="95.5887614149374" y="3" transform="rotate(180 95.5887614149374 0)" font-family="Helvetica Neue, Helvetica, Arial, sans-serif">CITES</text></g><g class="relationship" transform="translate(-10.613207542573726 28.923242265369073) rotate(230.40897215762675)"><path class="b-outline" fill="#A5ABB6" stroke="none" d="M 25 0.5 L 102.69174939233943 0.5 L 102.69174939233943 -0.5 L 25 -0.5 Z M 132.25034314233943 0.5 L 209.94209253467886 0.5 L 209.94209253467886 3.5 L 216.94209253467886 0 L 209.94209253467886 -3.5 L 209.94209253467886 -0.5 L 132.25034314233943 -0.5 Z"/><text text-anchor="middle" pointer-events="none" font-size="8px" fill="#000000" x="117.47104626733943" y="3" transform="rotate(180 117.47104626733943 0)" font-family="Helvetica Neue, Helvetica, Arial, sans-serif">CITES</text></g><g class="relationship" transform="translate(-10.613207542573726 28.923242265369073) rotate(468.4925726815667)"><path class="b-outline" fill="#A5ABB6" stroke="none" d="M 25 0.5 L 66.52270358867135 0.5 L 66.52270358867135 -0.5 L 25 -0.5 Z M 96.08129733867135 0.5 L 137.6040009273427 0.5 L 137.6040009273427 3.5 L 144.6040009273427 0 L 137.6040009273427 -3.5 L 137.6040009273427 -0.5 L 96.08129733867135 -0.5 Z"/><text text-anchor="middle" pointer-events="none" font-size="8px" fill="#000000" x="81.30200046367135" y="3" transform="rotate(180 81.30200046367135 0)" font-family="Helvetica Neue, Helvetica, Arial, sans-serif">CITES</text></g><g class="relationship" transform="translate(-10.613207542573726 28.923242265369073) rotate(226.16733779361567)"><path class="b-outline" fill="#A5ABB6" stroke="none" d="M 25 0.5 L 54.71355763790912 0.5 L 54.71355763790912 -0.5 L 25 -0.5 Z M 84.27215138790912 0.5 L 113.98570902581824 0.5 L 113.98570902581824 3.5 L 120.98570902581824 0 L 113.98570902581824 -3.5 L 113.98570902581824 -0.5 L 84.27215138790912 -0.5 Z"/><text text-anchor="middle" pointer-events="none" font-size="8px" fill="#000000" x="69.49285451290912" y="3" transform="rotate(180 69.49285451290912 0)" font-family="Helvetica Neue, Helvetica, Arial, sans-serif">CITES</text></g><g class="relationship" transform="translate(-10.613207542573726 28.923242265369073) rotate(186.4638972610431)"><path class="b-outline" fill="#A5ABB6" stroke="none" d="M 25 0.5 L 54.71125654387173 0.5 L 54.71125654387173 -0.5 L 25 -0.5 Z M 84.26985029387173 0.5 L 113.98110683774345 0.5 L 113.98110683774345 3.5 L 120.98110683774345 0 L 113.98110683774345 -3.5 L 113.98110683774345 -0.5 L 84.26985029387173 -0.5 Z"/><text text-anchor="middle" pointer-events="none" font-size="8px" fill="#000000" x="69.49055341887173" y="3" transform="rotate(180 69.49055341887173 0)" font-family="Helvetica Neue, Helvetica, Arial, sans-serif">CITES</text></g><g class="relationship" transform="translate(-10.613207542573726 28.923242265369073) rotate(206.41398699273145)"><path class="b-outline" fill="#A5ABB6" stroke="none" d="M 25 0.5 L 92.37295600593608 0.5 L 92.37295600593608 -0.5 L 25 -0.5 Z M 121.93154975593608 0.5 L 189.30450576187215 0.5 L 189.30450576187215 3.5 L 196.30450576187215 0 L 189.30450576187215 -3.5 L 189.30450576187215 -0.5 L 121.93154975593608 -0.5 Z"/><text text-anchor="middle" pointer-events="none" font-size="8px" fill="#000000" x="107.15225288093608" y="3" transform="rotate(180 107.15225288093608 0)" font-family="Helvetica Neue, Helvetica, Arial, sans-serif">CITES</text></g><g class="relationship" transform="translate(-10.613207542573726 28.923242265369073) rotate(182.9273843109445)"><path class="b-outline" fill="#A5ABB6" stroke="none" d="M 25 0.5 L 103.66978856815197 0.5 L 103.66978856815197 -0.5 L 25 -0.5 Z M 133.22838231815197 0.5 L 211.89817088630394 0.5 L 211.89817088630394 3.5 L 218.89817088630394 0 L 211.89817088630394 -3.5 L 211.89817088630394 -0.5 L 133.22838231815197 -0.5 Z"/><text text-anchor="middle" pointer-events="none" font-size="8px" fill="#000000" x="118.44908544315197" y="3" transform="rotate(180 118.44908544315197 0)" font-family="Helvetica Neue, Helvetica, Arial, sans-serif">CITES</text></g><g class="relationship" transform="translate(-10.613207542573726 28.923242265369073) rotate(520.3829618482534)"><path class="b-outline" fill="#A5ABB6" stroke="none" d="M 25 0.5 L 85.15472074452857 0.5 L 85.15472074452857 -0.5 L 25 -0.5 Z M 114.71331449452857 0.5 L 174.86803523905715 0.5 L 174.86803523905715 3.5 L 181.86803523905715 0 L 174.86803523905715 -3.5 L 174.86803523905715 -0.5 L 114.71331449452857 -0.5 Z"/><text text-anchor="middle" pointer-events="none" font-size="8px" fill="#000000" x="99.93401761952857" y="3" transform="rotate(180 99.93401761952857 0)" font-family="Helvetica Neue, Helvetica, Arial, sans-serif">CITES</text></g><g class="relationship" transform="translate(-10.613207542573726 28.923242265369073) rotate(503.40312619048996)"><path class="b-outline" fill="#A5ABB6" stroke="none" d="M 25 0.5 L 42.05568430354924 0.5 L 42.05568430354924 -0.5 L 25 -0.5 Z M 71.61427805354924 0.5 L 88.66996235709848 0.5 L 88.66996235709848 3.5 L 95.66996235709848 0 L 88.66996235709848 -3.5 L 88.66996235709848 -0.5 L 71.61427805354924 -0.5 Z"/><text text-anchor="middle" pointer-events="none" font-size="8px" fill="#000000" x="56.83498117854924" y="3" transform="rotate(180 56.83498117854924 0)" font-family="Helvetica Neue, Helvetica, Arial, sans-serif">CITES</text></g><g class="relationship" transform="translate(-10.613207542573726 28.923242265369073) rotate(493.6939020168418)"><path class="b-outline" fill="#A5ABB6" stroke="none" d="M 25 0.5 L 91.43548970123146 0.5 L 91.43548970123146 -0.5 L 25 -0.5 Z M 120.99408345123146 0.5 L 187.42957315246292 0.5 L 187.42957315246292 3.5 L 194.42957315246292 0 L 187.42957315246292 -3.5 L 187.42957315246292 -0.5 L 120.99408345123146 -0.5 Z"/><text text-anchor="middle" pointer-events="none" font-size="8px" fill="#000000" x="106.21478657623146" y="3" transform="rotate(180 106.21478657623146 0)" font-family="Helvetica Neue, Helvetica, Arial, sans-serif">CITES</text></g><g class="relationship" transform="translate(-113.88471815006254 273.92452423777866) rotate(479.0050902998665)"><path class="b-outline" fill="#A5ABB6" stroke="none" d="M 25 0.5 L 38.717923507958815 0.5 L 38.717923507958815 -0.5 L 25 -0.5 Z M 114.35464225795882 0.5 L 128.07256576591763 0.5 L 128.07256576591763 3.5 L 135.07256576591763 0 L 128.07256576591763 -3.5 L 128.07256576591763 -0.5 L 114.35464225795882 -0.5 Z"/><text text-anchor="middle" pointer-events="none" font-size="8px" fill="#000000" x="76.53628288295882" y="3" transform="rotate(180 76.53628288295882 0)" font-family="Helvetica Neue, Helvetica, Arial, sans-serif">AFFILIATED_WITH</text></g><g class="relationship" transform="translate(-10.613207542573726 28.923242265369073) rotate(472.85611220687605)"><path class="b-outline" fill="#A5ABB6" stroke="none" d="M 25 0.5 L 96.43269134607266 0.5 L 96.43269134607266 -0.5 L 25 -0.5 Z M 162.44441009607266 0.5 L 233.87710144214532 0.5 L 233.87710144214532 3.5 L 240.87710144214532 0 L 233.87710144214532 -3.5 L 233.87710144214532 -0.5 L 162.44441009607266 -0.5 Z"/><text text-anchor="middle" pointer-events="none" font-size="8px" fill="#000000" x="129.43855072107266" y="3" transform="rotate(180 129.43855072107266 0)" font-family="Helvetica Neue, Helvetica, Arial, sans-serif">AUTHORED_BY</text></g><g class="relationship" transform="translate(112.47577685565874 271.25973586142635) rotate(392.5141573250082)"><path class="b-outline" fill="#A5ABB6" stroke="none" d="M 25 0.5 L 45.433463376598425 0.5 L 45.433463376598425 -0.5 L 25 -0.5 Z M 121.07018212659843 0.5 L 141.50364550319685 0.5 L 141.50364550319685 3.5 L 148.50364550319685 0 L 141.50364550319685 -3.5 L 141.50364550319685 -0.5 L 121.07018212659843 -0.5 Z"/><text text-anchor="middle" pointer-events="none" font-size="8px" fill="#000000" x="83.25182275159843" y="3" font-family="Helvetica Neue, Helvetica, Arial, sans-serif">AFFILIATED_WITH</text></g><g class="relationship" transform="translate(-10.613207542573726 28.923242265369073) rotate(423.07280476758285)"><path class="b-outline" fill="#A5ABB6" stroke="none" d="M 25 0.5 L 99.39656353259593 0.5 L 99.39656353259593 -0.5 L 25 -0.5 Z M 165.40828228259593 0.5 L 239.80484581519187 0.5 L 239.80484581519187 3.5 L 246.80484581519187 0 L 239.80484581519187 -3.5 L 239.80484581519187 -0.5 L 165.40828228259593 -0.5 Z"/><text text-anchor="middle" pointer-events="none" font-size="8px" fill="#000000" x="132.40242290759593" y="3" font-family="Helvetica Neue, Helvetica, Arial, sans-serif">AUTHORED_BY</text></g><g class="relationship" transform="translate(192.38979259012726 213.3830805502513) rotate(426.28402675704876)"><path class="b-outline" fill="#A5ABB6" stroke="none" d="M 25 0.5 L 41.220097265895745 0.5 L 41.220097265895745 -0.5 L 25 -0.5 Z M 116.85681601589575 0.5 L 133.0769132817915 0.5 L 133.0769132817915 3.5 L 140.0769132817915 0 L 133.0769132817915 -3.5 L 133.0769132817915 -0.5 L 116.85681601589575 -0.5 Z"/><text text-anchor="middle" pointer-events="none" font-size="8px" fill="#000000" x="79.03845664089575" y="3" font-family="Helvetica Neue, Helvetica, Arial, sans-serif">AFFILIATED_WITH</text></g><g class="relationship" transform="translate(-10.613207542573726 28.923242265369073) rotate(402.2600342890806)"><path class="b-outline" fill="#A5ABB6" stroke="none" d="M 25 0.5 L 100.63972932817549 0.5 L 100.63972932817549 -0.5 L 25 -0.5 Z M 166.6514480781755 0.5 L 242.29117740635098 0.5 L 242.29117740635098 3.5 L 249.29117740635098 0 L 242.29117740635098 -3.5 L 242.29117740635098 -0.5 L 166.6514480781755 -0.5 Z"/><text text-anchor="middle" pointer-events="none" font-size="8px" fill="#000000" x="133.6455887031755" y="3" font-family="Helvetica Neue, Helvetica, Arial, sans-serif">AUTHORED_BY</text></g><g class="relationship" transform="translate(254.9303955713033 -39.68136677580794) rotate(337.040900816805)"><path class="b-outline" fill="#A5ABB6" stroke="none" d="M 25 0.5 L 39.94366747202717 0.5 L 39.94366747202717 -0.5 L 25 -0.5 Z M 115.58038622202717 0.5 L 130.52405369405434 0.5 L 130.52405369405434 3.5 L 137.52405369405434 0 L 130.52405369405434 -3.5 L 130.52405369405434 -0.5 L 115.58038622202717 -0.5 Z"/><text text-anchor="middle" pointer-events="none" font-size="8px" fill="#000000" x="77.76202684702717" y="3" font-family="Helvetica Neue, Helvetica, Arial, sans-serif">AFFILIATED_WITH</text></g><g class="relationship" transform="translate(-10.613207542573726 28.923242265369073) rotate(345.51408420194457)"><path class="b-outline" fill="#A5ABB6" stroke="none" d="M 25 0.5 L 100.62546229914653 0.5 L 100.62546229914653 -0.5 L 25 -0.5 Z M 166.63718104914653 0.5 L 242.26264334829307 0.5 L 242.26264334829307 3.5 L 249.26264334829307 0 L 242.26264334829307 -3.5 L 242.26264334829307 -0.5 L 166.63718104914653 -0.5 Z"/><text text-anchor="middle" pointer-events="none" font-size="8px" fill="#000000" x="133.63132167414653" y="3" font-family="Helvetica Neue, Helvetica, Arial, sans-serif">AUTHORED_BY</text></g><g class="relationship" transform="translate(-10.613207542573726 28.923242265369073) rotate(411.7389814580447)"><path class="b-outline" fill="#A5ABB6" stroke="none" d="M 25 0.5 L 73.61125565289436 0.5 L 73.61125565289436 -0.5 L 25 -0.5 Z M 103.16984940289436 0.5 L 151.78110505578871 0.5 L 151.78110505578871 3.5 L 158.78110505578871 0 L 151.78110505578871 -3.5 L 151.78110505578871 -0.5 L 103.16984940289436 -0.5 Z"/><text text-anchor="middle" pointer-events="none" font-size="8px" fill="#000000" x="88.39055252789436" y="3" font-family="Helvetica Neue, Helvetica, Arial, sans-serif">CITES</text></g><g class="relationship" transform="translate(-10.613207542573726 28.923242265369073) rotate(356.63500074436024)"><path class="b-outline" fill="#A5ABB6" stroke="none" d="M 25 0.5 L 74.98139173296627 0.5 L 74.98139173296627 -0.5 L 25 -0.5 Z M 104.53998548296627 0.5 L 154.52137721593255 0.5 L 154.52137721593255 3.5 L 161.52137721593255 0 L 154.52137721593255 -3.5 L 154.52137721593255 -0.5 L 104.53998548296627 -0.5 Z"/><text text-anchor="middle" pointer-events="none" font-size="8px" fill="#000000" x="89.76068860796627" y="3" font-family="Helvetica Neue, Helvetica, Arial, sans-serif">CITES</text></g><g class="relationship" transform="translate(-10.613207542573726 28.923242265369073) rotate(440.22922562975543)"><path class="b-outline" fill="#A5ABB6" stroke="none" d="M 25 0.5 L 83.46929719135123 0.5 L 83.46929719135123 -0.5 L 25 -0.5 Z M 113.02789094135123 0.5 L 171.49718813270246 0.5 L 171.49718813270246 3.5 L 178.49718813270246 0 L 171.49718813270246 -3.5 L 171.49718813270246 -0.5 L 113.02789094135123 -0.5 Z"/><text text-anchor="middle" pointer-events="none" font-size="8px" fill="#000000" x="98.24859406635123" y="3" font-family="Helvetica Neue, Helvetica, Arial, sans-serif">CITES</text></g><g class="relationship" transform="translate(-10.613207542573726 28.923242265369073) rotate(328.62816585181514)"><path class="b-outline" fill="#A5ABB6" stroke="none" d="M 25 0.5 L 83.95489784280815 0.5 L 83.95489784280815 -0.5 L 25 -0.5 Z M 113.51349159280815 0.5 L 172.4683894356163 0.5 L 172.4683894356163 3.5 L 179.4683894356163 0 L 172.4683894356163 -3.5 L 172.4683894356163 -0.5 L 113.51349159280815 -0.5 Z"/><text text-anchor="middle" pointer-events="none" font-size="8px" fill="#000000" x="98.73419471780815" y="3" font-family="Helvetica Neue, Helvetica, Arial, sans-serif">CITES</text></g><g class="relationship" transform="translate(-10.613207542573726 28.923242265369073) rotate(332.7459744589679)"><path class="b-outline" fill="#A5ABB6" stroke="none" d="M 25 0.5 L 35.69973362378505 0.5 L 35.69973362378505 -0.5 L 25 -0.5 Z M 65.25832737378505 0.5 L 75.9580609975701 0.5 L 75.9580609975701 3.5 L 82.9580609975701 0 L 75.9580609975701 -3.5 L 75.9580609975701 -0.5 L 65.25832737378505 -0.5 Z"/><text text-anchor="middle" pointer-events="none" font-size="8px" fill="#000000" x="50.47903049878505" y="3" font-family="Helvetica Neue, Helvetica, Arial, sans-serif">CITES</text></g><g class="relationship" transform="translate(-10.613207542573726 28.923242265369073) rotate(384.22481665680283)"><path class="b-outline" fill="#A5ABB6" stroke="none" d="M 25 0.5 L 87.62135704398699 0.5 L 87.62135704398699 -0.5 L 25 -0.5 Z M 117.17995079398699 0.5 L 179.80130783797398 0.5 L 179.80130783797398 3.5 L 186.80130783797398 0 L 179.80130783797398 -3.5 L 179.80130783797398 -0.5 L 117.17995079398699 -0.5 Z"/><text text-anchor="middle" pointer-events="none" font-size="8px" fill="#000000" x="102.40065391898699" y="3" font-family="Helvetica Neue, Helvetica, Arial, sans-serif">CITES</text></g><g class="relationship" transform="translate(-10.613207542573726 28.923242265369073) rotate(307.0755141134484)"><path class="b-outline" fill="#A5ABB6" stroke="none" d="M 25 0.5 L 109.7029262428927 0.5 L 109.7029262428927 -0.5 L 25 -0.5 Z M 139.26151999289272 0.5 L 223.9644462357854 0.5 L 223.9644462357854 3.5 L 230.9644462357854 0 L 223.9644462357854 -3.5 L 223.9644462357854 -0.5 L 139.26151999289272 -0.5 Z"/><text text-anchor="middle" pointer-events="none" font-size="8px" fill="#000000" x="124.4822231178927" y="3" font-family="Helvetica Neue, Helvetica, Arial, sans-serif">CITES</text></g><g class="relationship" transform="translate(-10.613207542573726 28.923242265369073) rotate(278.44959866063476)"><path class="b-outline" fill="#A5ABB6" stroke="none" d="M 25 0.5 L 96.53282734451456 0.5 L 96.53282734451456 -0.5 L 25 -0.5 Z M 126.09142109451456 0.5 L 197.62424843902912 0.5 L 197.62424843902912 3.5 L 204.62424843902912 0 L 197.62424843902912 -3.5 L 197.62424843902912 -0.5 L 126.09142109451456 -0.5 Z"/><text text-anchor="middle" pointer-events="none" font-size="8px" fill="#000000" x="111.31212421951456" y="3" font-family="Helvetica Neue, Helvetica, Arial, sans-serif">CITES</text></g><g class="relationship" transform="translate(-10.613207542573726 28.923242265369073) rotate(300.38223339429703)"><path class="b-outline" fill="#A5ABB6" stroke="none" d="M 25 0.5 L 64.5170732335006 0.5 L 64.5170732335006 -0.5 L 25 -0.5 Z M 94.0756669835006 0.5 L 133.5927402170012 0.5 L 133.5927402170012 3.5 L 140.5927402170012 0 L 133.5927402170012 -3.5 L 133.5927402170012 -0.5 L 94.0756669835006 -0.5 Z"/><text text-anchor="middle" pointer-events="none" font-size="8px" fill="#000000" x="79.2963701085006" y="3" font-family="Helvetica Neue, Helvetica, Arial, sans-serif">CITES</text></g><g class="relationship" transform="translate(-10.613207542573726 28.923242265369073) rotate(267.55011996144054)"><path class="b-outline" fill="#A5ABB6" stroke="none" d="M 25 0.5 L 34.79423637575598 0.5 L 34.79423637575598 -0.5 L 25 -0.5 Z M 64.35283012575599 0.5 L 74.14706650151196 0.5 L 74.14706650151196 3.5 L 81.14706650151196 0 L 74.14706650151196 -3.5 L 74.14706650151196 -0.5 L 64.35283012575599 -0.5 Z"/><text text-anchor="middle" pointer-events="none" font-size="8px" fill="#000000" x="49.57353325075598" y="3" transform="rotate(180 49.57353325075598 0)" font-family="Helvetica Neue, Helvetica, Arial, sans-serif">CITES</text></g></g><g class="layer nodes"><g class="node" aria-label="graph-node0" transform="translate(-113.88471815006254,273.92452423777866)"><circle class="b-outline" cx="0" cy="0" r="25" fill="#F79767" stroke="#f36924" stroke-width="2px"/><text class="caption" text-anchor="middle" pointer-events="none" x="0" y="0" font-size="10px" fill="#FFFFFF" font-family="Helvetica Neue, Helvetica, Arial, sans-serif"> Esra</text><text class="caption" text-anchor="middle" pointer-events="none" x="0" y="10" font-size="10px" fill="#FFFFFF" font-family="Helvetica Neue, Helvetica, Arial, sans-serif"> Akdeniz</text></g><g class="node" aria-label="graph-node1" transform="translate(-191.50187584639252,413.9202496797616)"><circle class="b-outline" cx="0" cy="0" r="25" fill="#F16667" stroke="#eb2728" stroke-width="2px"/><text class="caption" text-anchor="middle" pointer-events="none" x="0" y="5" font-size="10px" fill="#FFFFFF" font-family="Helvetica Neue, Helvetica, Arial, sans-serif"> Departm…</text></g><g class="node" aria-label="graph-node2" transform="translate(112.47577685565874,271.25973586142635)"><circle class="b-outline" cx="0" cy="0" r="25" fill="#F79767" stroke="#f36924" stroke-width="2px"/><text class="caption" text-anchor="middle" pointer-events="none" x="0" y="0" font-size="10px" fill="#FFFFFF" font-family="Helvetica Neue, Helvetica, Arial, sans-serif"> Erol</text><text class="caption" text-anchor="middle" pointer-events="none" x="0" y="10" font-size="10px" fill="#FFFFFF" font-family="Helvetica Neue, Helvetica, Arial, sans-serif"> Egrioglu</text></g><g class="node" aria-label="graph-node3" transform="translate(258.78422806321055,364.51933112189505)"><circle class="b-outline" cx="0" cy="0" r="25" fill="#F16667" stroke="#eb2728" stroke-width="2px"/><text class="caption" text-anchor="middle" pointer-events="none" x="0" y="5" font-size="10px" fill="#FFFFFF" font-family="Helvetica Neue, Helvetica, Arial, sans-serif"> Departm…</text></g><g class="node" aria-label="graph-node4" transform="translate(192.38979259012726,213.3830805502513)"><circle class="b-outline" cx="0" cy="0" r="25" fill="#F79767" stroke="#f36924" stroke-width="2px"/><text class="caption" text-anchor="middle" pointer-events="none" x="0" y="5" font-size="10px" fill="#FFFFFF" font-family="Helvetica Neue, Helvetica, Arial, sans-serif"> Eren Bas</text></g><g class="node" aria-label="graph-node5" transform="translate(254.9303955713033,-39.68136677580794)"><circle class="b-outline" cx="0" cy="0" r="25" fill="#F79767" stroke="#f36924" stroke-width="2px"/><text class="caption" text-anchor="middle" pointer-events="none" x="0" y="0" font-size="10px" fill="#FFFFFF" font-family="Helvetica Neue, Helvetica, Arial, sans-serif"> Ufuk</text><text class="caption" text-anchor="middle" pointer-events="none" x="0" y="10" font-size="10px" fill="#FFFFFF" font-family="Helvetica Neue, Helvetica, Arial, sans-serif"> Yolcu</text></g><g class="node" aria-label="graph-node6" transform="translate(404.5798696905757,-103.07776198068589)"><circle class="b-outline" cx="0" cy="0" r="25" fill="#F16667" stroke="#eb2728" stroke-width="2px"/><text class="caption" text-anchor="middle" pointer-events="none" x="0" y="5" font-size="10px" fill="#FFFFFF" font-family="Helvetica Neue, Helvetica, Arial, sans-serif"> Departm…</text></g><g class="node" aria-label="graph-node7" transform="translate(103.19231587971397,173.2277723886676)"><circle class="b-outline" cx="0" cy="0" r="25" fill="#57C7E3" stroke="#23b3d7" stroke-width="2px"/><text class="caption" text-anchor="middle" pointer-events="none" x="0" y="-5" font-size="10px" fill="#2A2C34" font-family="Helvetica Neue, Helvetica, Arial, sans-serif"> [1] R.N.</text><text class="caption" text-anchor="middle" pointer-events="none" x="0" y="5" font-size="10px" fill="#2A2C34" font-family="Helvetica Neue, Helvetica, Arial, sans-serif"> Yadav,</text><text class="caption" text-anchor="middle" pointer-events="none" x="0" y="15" font-size="10px" fill="#2A2C34" font-family="Helvetica Neue, Helvetica, Arial, sans-serif"> P.K</text></g><g class="node" aria-label="graph-node8" transform="translate(175.58658268995012,17.97507913668313)"><circle class="b-outline" cx="0" cy="0" r="25" fill="#57C7E3" stroke="#23b3d7" stroke-width="2px"/><text class="caption" text-anchor="middle" pointer-events="none" x="0" y="-5" font-size="10px" fill="#2A2C34" font-family="Helvetica Neue, Helvetica, Arial, sans-serif"> [2] E.</text><text class="caption" text-anchor="middle" pointer-events="none" x="0" y="5" font-size="10px" fill="#2A2C34" font-family="Helvetica Neue, Helvetica, Arial, sans-serif"> Egrioglu,</text><text class="caption" text-anchor="middle" pointer-events="none" x="0" y="15" font-size="10px" fill="#2A2C34" font-family="Helvetica Neue, Helvetica, Arial, sans-serif"> C.</text></g><g class="node" aria-label="graph-node9" transform="translate(23.921656546883018,229.46862052235923)"><circle class="b-outline" cx="0" cy="0" r="25" fill="#57C7E3" stroke="#23b3d7" stroke-width="2px"/><text class="caption" text-anchor="middle" pointer-events="none" x="0" y="0" font-size="10px" fill="#2A2C34" font-family="Helvetica Neue, Helvetica, Arial, sans-serif"> [3] O.</text><text class="caption" text-anchor="middle" pointer-events="none" x="0" y="10" font-size="10px" fill="#2A2C34" font-family="Helvetica Neue, Helvetica, Arial, sans-serif"> Gund…</text></g><g class="node" aria-label="graph-node10" transform="translate(163.96329693550763,-77.52095138843848)"><circle class="b-outline" cx="0" cy="0" r="25" fill="#57C7E3" stroke="#23b3d7" stroke-width="2px"/><text class="caption" text-anchor="middle" pointer-events="none" x="0" y="0" font-size="10px" fill="#2A2C34" font-family="Helvetica Neue, Helvetica, Arial, sans-serif"> [4] D.E.</text><text class="caption" text-anchor="middle" pointer-events="none" x="0" y="10" font-size="10px" fill="#2A2C34" font-family="Helvetica Neue, Helvetica, Arial, sans-serif"> Rumel…</text></g><g class="node" aria-label="graph-node11" transform="translate(85.35988602637615,-20.51468088235889)"><circle class="b-outline" cx="0" cy="0" r="25" fill="#57C7E3" stroke="#23b3d7" stroke-width="2px"/><text class="caption" text-anchor="middle" pointer-events="none" x="0" y="0" font-size="10px" fill="#2A2C34" font-family="Helvetica Neue, Helvetica, Arial, sans-serif"> [5] C.L.</text><text class="caption" text-anchor="middle" pointer-events="none" x="0" y="10" font-size="10px" fill="#2A2C34" font-family="Helvetica Neue, Helvetica, Arial, sans-serif">an…</text></g><g class="node" aria-label="graph-node12" transform="translate(182.53740232748234,115.82914487676611)"><circle class="b-outline" cx="0" cy="0" r="25" fill="#57C7E3" stroke="#23b3d7" stroke-width="2px"/><text class="caption" text-anchor="middle" pointer-events="none" x="0" y="-5" font-size="10px" fill="#2A2C34" font-family="Helvetica Neue, Helvetica, Arial, sans-serif"> [6] R.</text><text class="caption" text-anchor="middle" pointer-events="none" x="0" y="5" font-size="10px" fill="#2A2C34" font-family="Helvetica Neue, Helvetica, Arial, sans-serif"> Durbin,</text><text class="caption" text-anchor="middle" pointer-events="none" x="0" y="15" font-size="10px" fill="#2A2C34" font-family="Helvetica Neue, Helvetica, Arial, sans-serif"> and </text></g><g class="node" aria-label="graph-node13" transform="translate(143.6993301623763,-175.2958519541741)"><circle class="b-outline" cx="0" cy="0" r="25" fill="#57C7E3" stroke="#23b3d7" stroke-width="2px"/><text class="caption" text-anchor="middle" pointer-events="none" x="0" y="-5" font-size="10px" fill="#2A2C34" font-family="Helvetica Neue, Helvetica, Arial, sans-serif"> [7] Y.</text><text class="caption" text-anchor="middle" pointer-events="none" x="0" y="5" font-size="10px" fill="#2A2C34" font-family="Helvetica Neue, Helvetica, Arial, sans-serif"> Shin, and</text><text class="caption" text-anchor="middle" pointer-events="none" x="0" y="15" font-size="10px" fill="#2A2C34" font-family="Helvetica Neue, Helvetica, Arial, sans-serif"> J.</text></g><g class="node" aria-label="graph-node14" transform="translate(23.12762961095629,-198.2085507081553)"><circle class="b-outline" cx="0" cy="0" r="25" fill="#57C7E3" stroke="#23b3d7" stroke-width="2px"/><text class="caption" text-anchor="middle" pointer-events="none" x="0" y="-5" font-size="10px" fill="#2A2C34" font-family="Helvetica Neue, Helvetica, Arial, sans-serif"> [8] R.</text><text class="caption" text-anchor="middle" pointer-events="none" x="0" y="5" font-size="10px" fill="#2A2C34" font-family="Helvetica Neue, Helvetica, Arial, sans-serif"> Ghazali.</text><text class="caption" text-anchor="middle" pointer-events="none" x="0" y="15" font-size="10px" fill="#2A2C34" font-family="Helvetica Neue, Helvetica, Arial, sans-serif"> A. </text></g><g class="node" aria-label="graph-node15" transform="translate(73.13801776239823,-113.92873662358811)"><circle class="b-outline" cx="0" cy="0" r="25" fill="#57C7E3" stroke="#23b3d7" stroke-width="2px"/><text class="caption" text-anchor="middle" pointer-events="none" x="0" y="-5" font-size="10px" fill="#2A2C34" font-family="Helvetica Neue, Helvetica, Arial, sans-serif"> [9] R.</text><text class="caption" text-anchor="middle" pointer-events="none" x="0" y="5" font-size="10px" fill="#2A2C34" font-family="Helvetica Neue, Helvetica, Arial, sans-serif"> Ghazali.</text><text class="caption" text-anchor="middle" pointer-events="none" x="0" y="15" font-size="10px" fill="#2A2C34" font-family="Helvetica Neue, Helvetica, Arial, sans-serif"> A. </text></g><g class="node" aria-label="graph-node16" transform="translate(-15.150511137320978,-77.12680536764945)"><circle class="b-outline" cx="0" cy="0" r="25" fill="#57C7E3" stroke="#23b3d7" stroke-width="2px"/><text class="caption" text-anchor="middle" pointer-events="none" x="0" y="-5" font-size="10px" fill="#2A2C34" font-family="Helvetica Neue, Helvetica, Arial, sans-serif"> [10] R.</text><text class="caption" text-anchor="middle" pointer-events="none" x="0" y="5" font-size="10px" fill="#2A2C34" font-family="Helvetica Neue, Helvetica, Arial, sans-serif"> Ghazali,</text><text class="caption" text-anchor="middle" pointer-events="none" x="0" y="15" font-size="10px" fill="#2A2C34" font-family="Helvetica Neue, Helvetica, Arial, sans-serif"> A.</text></g><g class="node" aria-label="graph-node17" transform="translate(95.34012778889405,76.26703737791088)"><circle class="b-outline" cx="0" cy="0" r="25" fill="#57C7E3" stroke="#23b3d7" stroke-width="2px"/><text class="caption" text-anchor="middle" pointer-events="none" x="0" y="-5" font-size="10px" fill="#2A2C34" font-family="Helvetica Neue, Helvetica, Arial, sans-serif"> [11] H.</text><text class="caption" text-anchor="middle" pointer-events="none" x="0" y="5" font-size="10px" fill="#2A2C34" font-family="Helvetica Neue, Helvetica, Arial, sans-serif"> Tawfik,</text><text class="caption" text-anchor="middle" pointer-events="none" x="0" y="15" font-size="10px" fill="#2A2C34" font-family="Helvetica Neue, Helvetica, Arial, sans-serif"> and</text></g><g class="node" aria-label="graph-node18" transform="translate(13.617856953490305,132.13798975878873)"><circle class="b-outline" cx="0" cy="0" r="25" fill="#57C7E3" stroke="#23b3d7" stroke-width="2px"/><text class="caption" text-anchor="middle" pointer-events="none" x="0" y="-5" font-size="10px" fill="#2A2C34" font-family="Helvetica Neue, Helvetica, Arial, sans-serif"> [12] N.</text><text class="caption" text-anchor="middle" pointer-events="none" x="0" y="5" font-size="10px" fill="#2A2C34" font-family="Helvetica Neue, Helvetica, Arial, sans-serif"> Yong, and</text><text class="caption" text-anchor="middle" pointer-events="none" x="0" y="15" font-size="10px" fill="#2A2C34" font-family="Helvetica Neue, Helvetica, Arial, sans-serif"> D</text></g><g class="node" aria-label="graph-node19" transform="translate(-65.78343760934963,-161.4200693307166)"><circle class="b-outline" cx="0" cy="0" r="25" fill="#57C7E3" stroke="#23b3d7" stroke-width="2px"/><text class="caption" text-anchor="middle" pointer-events="none" x="0" y="-5" font-size="10px" fill="#2A2C34" font-family="Helvetica Neue, Helvetica, Arial, sans-serif"> [13] J.</text><text class="caption" text-anchor="middle" pointer-events="none" x="0" y="5" font-size="10px" fill="#2A2C34" font-family="Helvetica Neue, Helvetica, Arial, sans-serif"> Nayak, B.</text><text class="caption" text-anchor="middle" pointer-events="none" x="0" y="15" font-size="10px" fill="#2A2C34" font-family="Helvetica Neue, Helvetica, Arial, sans-serif"> N</text></g><g class="node" aria-label="graph-node20" transform="translate(-164.80370743223764,-157.52049156292202)"><circle class="b-outline" cx="0" cy="0" r="25" fill="#57C7E3" stroke="#23b3d7" stroke-width="2px"/><text class="caption" text-anchor="middle" pointer-events="none" x="0" y="-5" font-size="10px" fill="#2A2C34" font-family="Helvetica Neue, Helvetica, Arial, sans-serif"> [14] J.</text><text class="caption" text-anchor="middle" pointer-events="none" x="0" y="5" font-size="10px" fill="#2A2C34" font-family="Helvetica Neue, Helvetica, Arial, sans-serif"> Nayak, B.</text><text class="caption" text-anchor="middle" pointer-events="none" x="0" y="15" font-size="10px" fill="#2A2C34" font-family="Helvetica Neue, Helvetica, Arial, sans-serif"> N</text></g><g class="node" aria-label="graph-node21" transform="translate(-64.40849652028331,189.7697032595942)"><circle class="b-outline" cx="0" cy="0" r="25" fill="#57C7E3" stroke="#23b3d7" stroke-width="2px"/><text class="caption" text-anchor="middle" pointer-events="none" x="0" y="0" font-size="10px" fill="#2A2C34" font-family="Helvetica Neue, Helvetica, Arial, sans-serif"> [15] L.</text><text class="caption" text-anchor="middle" pointer-events="none" x="0" y="10" font-size="10px" fill="#2A2C34" font-family="Helvetica Neue, Helvetica, Arial, sans-serif"> Chien-…</text></g><g class="node" aria-label="graph-node22" transform="translate(-111.71626875549738,-76.38581837590094)"><circle class="b-outline" cx="0" cy="0" r="25" fill="#57C7E3" stroke="#23b3d7" stroke-width="2px"/><text class="caption" text-anchor="middle" pointer-events="none" x="0" y="0" font-size="10px" fill="#2A2C34" font-family="Helvetica Neue, Helvetica, Arial, sans-serif"> [16] A.J.</text><text class="caption" text-anchor="middle" pointer-events="none" x="0" y="10" font-size="10px" fill="#2A2C34" font-family="Helvetica Neue, Helvetica, Arial, sans-serif"> Hussa…</text></g><g class="node" aria-label="graph-node23" transform="translate(-155.66631089193518,12.48910820567087)"><circle class="b-outline" cx="0" cy="0" r="25" fill="#57C7E3" stroke="#23b3d7" stroke-width="2px"/><text class="caption" text-anchor="middle" pointer-events="none" x="0" y="-5" font-size="10px" fill="#2A2C34" font-family="Helvetica Neue, Helvetica, Arial, sans-serif"> [17] J.</text><text class="caption" text-anchor="middle" pointer-events="none" x="0" y="5" font-size="10px" fill="#2A2C34" font-family="Helvetica Neue, Helvetica, Arial, sans-serif"> Nayak,</text><text class="caption" text-anchor="middle" pointer-events="none" x="0" y="15" font-size="10px" fill="#2A2C34" font-family="Helvetica Neue, Helvetica, Arial, sans-serif"> D.P.</text></g><g class="node" aria-label="graph-node24" transform="translate(-208.814228780623,-69.52491389156883)"><circle class="b-outline" cx="0" cy="0" r="25" fill="#57C7E3" stroke="#23b3d7" stroke-width="2px"/><text class="caption" text-anchor="middle" pointer-events="none" x="0" y="-5" font-size="10px" fill="#2A2C34" font-family="Helvetica Neue, Helvetica, Arial, sans-serif"> [18] J.</text><text class="caption" text-anchor="middle" pointer-events="none" x="0" y="5" font-size="10px" fill="#2A2C34" font-family="Helvetica Neue, Helvetica, Arial, sans-serif"> Kennedy,</text><text class="caption" text-anchor="middle" pointer-events="none" x="0" y="15" font-size="10px" fill="#2A2C34" font-family="Helvetica Neue, Helvetica, Arial, sans-serif"> R.</text></g><g class="node" aria-label="graph-node25" transform="translate(-254.1931065355965,16.46729716941042)"><circle class="b-outline" cx="0" cy="0" r="25" fill="#57C7E3" stroke="#23b3d7" stroke-width="2px"/><text class="caption" text-anchor="middle" pointer-events="none" x="0" y="-10" font-size="10px" fill="#2A2C34" font-family="Helvetica Neue, Helvetica, Arial, sans-serif"> [19]</text><text class="caption" text-anchor="middle" pointer-events="none" x="0" y="0" font-size="10px" fill="#2A2C34" font-family="Helvetica Neue, Helvetica, Arial, sans-serif"> C.H.</text><text class="caption" text-anchor="middle" pointer-events="none" x="0" y="10" font-size="10px" fill="#2A2C34" font-family="Helvetica Neue, Helvetica, Arial, sans-serif"> Aladag,</text><text class="caption" text-anchor="middle" pointer-events="none" x="0" y="20" font-size="10px" fill="#2A2C34" font-family="Helvetica Neue, Helvetica, Arial, sans-serif">U…</text></g><g class="node" aria-label="graph-node26" transform="translate(-205.4741373830941,98.37539864193946)"><circle class="b-outline" cx="0" cy="0" r="25" fill="#57C7E3" stroke="#23b3d7" stroke-width="2px"/><text class="caption" text-anchor="middle" pointer-events="none" x="0" y="-5" font-size="10px" fill="#2A2C34" font-family="Helvetica Neue, Helvetica, Arial, sans-serif"> [20] G.</text><text class="caption" text-anchor="middle" pointer-events="none" x="0" y="5" font-size="10px" fill="#2A2C34" font-family="Helvetica Neue, Helvetica, Arial, sans-serif"> Janacek,</text><text class="caption" text-anchor="middle" pointer-events="none" x="0" y="15" font-size="10px" fill="#2A2C34" font-family="Helvetica Neue, Helvetica, Arial, sans-serif"> Pr</text></g><g class="node" aria-label="graph-node27" transform="translate(-107.49308747340537,100.86438960019555)"><circle class="b-outline" cx="0" cy="0" r="25" fill="#57C7E3" stroke="#23b3d7" stroke-width="2px"/><text class="caption" text-anchor="middle" pointer-events="none" x="0" y="-5" font-size="10px" fill="#2A2C34" font-family="Helvetica Neue, Helvetica, Arial, sans-serif"> [21] U.</text><text class="caption" text-anchor="middle" pointer-events="none" x="0" y="5" font-size="10px" fill="#2A2C34" font-family="Helvetica Neue, Helvetica, Arial, sans-serif"> Yolcu, E.</text><text class="caption" text-anchor="middle" pointer-events="none" x="0" y="15" font-size="10px" fill="#2A2C34" font-family="Helvetica Neue, Helvetica, Arial, sans-serif"> E</text></g><g class="node" aria-label="graph-node28" transform="translate(-162.19635516874484,187.57974837090038)"><circle class="b-outline" cx="0" cy="0" r="25" fill="#57C7E3" stroke="#23b3d7" stroke-width="2px"/><text class="caption" text-anchor="middle" pointer-events="none" x="0" y="0" font-size="10px" fill="#2A2C34" font-family="Helvetica Neue, Helvetica, Arial, sans-serif"> [22] J.L.</text><text class="caption" text-anchor="middle" pointer-events="none" x="0" y="10" font-size="10px" fill="#2A2C34" font-family="Helvetica Neue, Helvetica, Arial, sans-serif">Fi…</text></g><g class="node" aria-label="graph-node29" transform="translate(-10.613207542573726,28.923242265369073)"><circle class="b-outline" cx="0" cy="0" r="25" fill="#C990C0" stroke="#b261a5" stroke-width="2px"/><text class="caption" text-anchor="middle" pointer-events="none" x="0" y="-10" font-size="10px" fill="#FFFFFF" font-family="Helvetica Neue, Helvetica, Arial, sans-serif"> An</text><text class="caption" text-anchor="middle" pointer-events="none" x="0" y="0" font-size="10px" fill="#FFFFFF" font-family="Helvetica Neue, Helvetica, Arial, sans-serif"> ARMA</text><text class="caption" text-anchor="middle" pointer-events="none" x="0" y="10" font-size="10px" fill="#FFFFFF" font-family="Helvetica Neue, Helvetica, Arial, sans-serif"> Type</text><text class="caption" text-anchor="middle" pointer-events="none" x="0" y="20" font-size="10px" fill="#FFFFFF" font-family="Helvetica Neue, Helvetica, Arial, sans-serif">Pi…</text></g></g></svg>